<svg width="54" height="55" viewBox="0 0 54 55" fill="none" xmlns="http://www.w3.org/2000/svg">
<g id="material-symbols:barcode-scanner-rounded">
<path id="Vector" d="M13.6665 45.3112C13.6665 45.9408 13.4532 46.4689 13.0265 46.8956C12.5999 47.3223 12.0725 47.5349 11.4443 47.5334H4.77764C4.14801 47.5334 3.6206 47.32 3.19542 46.8934C2.77023 46.4667 2.5569 45.9393 2.55542 45.3112V38.6445C2.55542 38.0149 2.76875 37.4875 3.19542 37.0623C3.62209 36.6371 4.14949 36.4238 4.77764 36.4223C5.40727 36.4223 5.93542 36.6356 6.36209 37.0623C6.78875 37.4889 7.00135 38.0163 6.99986 38.6445V43.0889H11.4443C12.0739 43.0889 12.6021 43.3023 13.0288 43.7289C13.4554 44.1556 13.668 44.683 13.6665 45.3112ZM49.2221 36.4223C49.8517 36.4223 50.3799 36.6356 50.8065 37.0623C51.2332 37.4889 51.4458 38.0163 51.4443 38.6445V45.3112C51.4443 45.9408 51.231 46.4689 50.8043 46.8956C50.3776 47.3223 49.8502 47.5349 49.2221 47.5334H42.5554C41.9258 47.5334 41.3984 47.32 40.9732 46.8934C40.548 46.4667 40.3347 45.9393 40.3332 45.3112C40.3332 44.6815 40.5465 44.1541 40.9732 43.7289C41.3999 43.3038 41.9273 43.0904 42.5554 43.0889H46.9999V38.6445C46.9999 38.0149 47.2132 37.4875 47.6399 37.0623C48.0665 36.6371 48.5939 36.4238 49.2221 36.4223ZM10.3332 40.8667C10.0369 40.8667 9.77764 40.7556 9.55542 40.5334C9.3332 40.3112 9.22209 40.0519 9.22209 39.7556V15.3112C9.22209 15.0149 9.3332 14.7556 9.55542 14.5334C9.77764 14.3112 10.0369 14.2001 10.3332 14.2001H12.5554C12.8517 14.2001 13.111 14.3112 13.3332 14.5334C13.5554 14.7556 13.6665 15.0149 13.6665 15.3112V39.7556C13.6665 40.0519 13.5554 40.3112 13.3332 40.5334C13.111 40.7556 12.8517 40.8667 12.5554 40.8667H10.3332ZM16.9999 40.8667C16.7036 40.8667 16.4443 40.7556 16.2221 40.5334C15.9999 40.3112 15.8888 40.0519 15.8888 39.7556V15.3112C15.8888 15.0149 15.9999 14.7556 16.2221 14.5334C16.4443 14.3112 16.7036 14.2001 16.9999 14.2001C17.2962 14.2001 17.5554 14.3112 17.7776 14.5334C17.9999 14.7556 18.111 15.0149 18.111 15.3112V39.7556C18.111 40.0519 17.9999 40.3112 17.7776 40.5334C17.5554 40.7556 17.2962 40.8667 16.9999 40.8667ZM23.6665 40.8667C23.3702 40.8667 23.111 40.7556 22.8888 40.5334C22.6665 40.3112 22.5554 40.0519 22.5554 39.7556V15.3112C22.5554 15.0149 22.6665 14.7556 22.8888 14.5334C23.111 14.3112 23.3702 14.2001 23.6665 14.2001H25.8888C26.185 14.2001 26.4443 14.3112 26.6665 14.5334C26.8888 14.7556 26.9999 15.0149 26.9999 15.3112V39.7556C26.9999 40.0519 26.8888 40.3112 26.6665 40.5334C26.4443 40.7556 26.185 40.8667 25.8888 40.8667H23.6665ZM30.3332 40.8667C30.0369 40.8667 29.7776 40.7556 29.5554 40.5334C29.3332 40.3112 29.2221 40.0519 29.2221 39.7556V15.3112C29.2221 15.0149 29.3332 14.7556 29.5554 14.5334C29.7776 14.3112 30.0369 14.2001 30.3332 14.2001H34.7776C35.0739 14.2001 35.3332 14.3112 35.5554 14.5334C35.7776 14.7556 35.8888 15.0149 35.8888 15.3112V39.7556C35.8888 40.0519 35.7776 40.3112 35.5554 40.5334C35.3332 40.7556 35.0739 40.8667 34.7776 40.8667H30.3332ZM39.2221 40.8667C38.9258 40.8667 38.6665 40.7556 38.4443 40.5334C38.2221 40.3112 38.111 40.0519 38.111 39.7556V15.3112C38.111 15.0149 38.2221 14.7556 38.4443 14.5334C38.6665 14.3112 38.9258 14.2001 39.2221 14.2001C39.5184 14.2001 39.7776 14.3112 39.9999 14.5334C40.2221 14.7556 40.3332 15.0149 40.3332 15.3112V39.7556C40.3332 40.0519 40.2221 40.3112 39.9999 40.5334C39.7776 40.7556 39.5184 40.8667 39.2221 40.8667ZM43.6665 40.8667C43.3702 40.8667 43.111 40.7556 42.8887 40.5334C42.6665 40.3112 42.5554 40.0519 42.5554 39.7556V15.3112C42.5554 15.0149 42.6665 14.7556 42.8887 14.5334C43.111 14.3112 43.3702 14.2001 43.6665 14.2001C43.9628 14.2001 44.2221 14.3112 44.4443 14.5334C44.6665 14.7556 44.7776 15.0149 44.7776 15.3112V39.7556C44.7776 40.0519 44.6665 40.3112 44.4443 40.5334C44.2221 40.7556 43.9628 40.8667 43.6665 40.8667ZM13.6665 9.75561C13.6665 10.3852 13.4532 10.9134 13.0265 11.3401C12.5999 11.7667 12.0725 11.9793 11.4443 11.9778H6.99986V16.4223C6.99986 17.0519 6.78653 17.5801 6.35986 18.0067C5.9332 18.4334 5.40579 18.646 4.77764 18.6445C4.14801 18.6445 3.6206 18.4312 3.19542 18.0045C2.77023 17.5778 2.5569 17.0504 2.55542 16.4223V9.75561C2.55542 9.12598 2.76875 8.59857 3.19542 8.17339C3.62209 7.7482 4.14949 7.53487 4.77764 7.53339H11.4443C12.0739 7.53339 12.6021 7.74672 13.0288 8.17339C13.4554 8.60005 13.668 9.12746 13.6665 9.75561ZM40.3332 9.75561C40.3332 9.12598 40.5465 8.59857 40.9732 8.17339C41.3999 7.7482 41.9273 7.53487 42.5554 7.53339H49.2221C49.8517 7.53339 50.3799 7.74672 50.8065 8.17339C51.2332 8.60005 51.4458 9.12746 51.4443 9.75561V16.4223C51.4443 17.0519 51.231 17.5801 50.8043 18.0067C50.3776 18.4334 49.8502 18.646 49.2221 18.6445C48.5925 18.6445 48.065 18.4312 47.6399 18.0045C47.2147 17.5778 47.0013 17.0504 46.9999 16.4223V11.9778H42.5554C41.9258 11.9778 41.3984 11.7645 40.9732 11.3378C40.548 10.9112 40.3347 10.3838 40.3332 9.75561Z" fill="white"/>
</g>
</svg>
