<svg width="97" height="97" viewBox="0 0 97 97" fill="none" xmlns="http://www.w3.org/2000/svg">
<g id="ic:twotone-search">
<path id="Vector" d="M62.6023 56.3591H59.4423L58.3223 55.2791C62.3778 50.5752 64.6067 44.5699 64.6023 38.3591C64.6023 33.2168 63.0774 28.19 60.2205 23.9143C57.3636 19.6386 53.303 16.3062 48.5521 14.3383C43.8012 12.3704 38.5735 11.8555 33.53 12.8587C28.4865 13.8619 23.8537 16.3382 20.2175 19.9744C16.5814 23.6105 14.1051 28.2433 13.1019 33.2868C12.0987 38.3303 12.6136 43.558 14.5814 48.3089C16.5493 53.0598 19.8818 57.1204 24.1575 59.9774C28.4332 62.8343 33.46 64.3591 38.6023 64.3591C45.0423 64.3591 50.9623 61.9991 55.5223 58.0791L56.6023 59.1991V62.3591L76.6023 82.3191L82.5623 76.3591L62.6023 56.3591ZM38.6023 56.3591C28.6423 56.3591 20.6023 48.3191 20.6023 38.3591C20.6023 28.3991 28.6423 20.3591 38.6023 20.3591C48.5623 20.3591 56.6023 28.3991 56.6023 38.3591C56.6023 48.3191 48.5623 56.3591 38.6023 56.3591Z" fill="#595D62"/>
</g>
</svg>
