<svg width="49" height="48" viewBox="0 0 49 48" fill="none" xmlns="http://www.w3.org/2000/svg">
<g id="location-point-svgrepo-com 1" clip-path="url(#clip0_20_199)">
<g id="Group">
<path id="Vector" d="M24.7821 7.27905C19.0132 7.27905 14.3197 11.9724 14.3197 17.7413C14.3197 23.5101 19.0132 28.2034 24.7821 28.2034C30.551 28.2034 35.2445 23.5101 35.2445 17.7413C35.2445 11.9724 30.551 7.27905 24.7821 7.27905ZM24.7821 25.3892C20.5649 25.3892 17.1338 21.9582 17.1338 17.7411C17.1338 13.5239 20.5649 10.0931 24.7821 10.0931C28.9993 10.0931 32.4304 13.5241 32.4304 17.7413C32.4304 21.9584 28.9995 25.3892 24.7821 25.3892Z" fill="white"/>
<path id="Vector_2" d="M24.7821 0C14.9996 0 7.04102 7.9586 7.04102 17.7411C7.04102 23.3828 11.7724 31.7881 14.5927 36.296C16.4483 39.2619 18.4424 42.0846 20.2074 44.2439C23.0404 47.7098 24.0544 47.9998 24.7823 47.9998C25.5211 47.9998 26.4785 47.7096 29.3027 44.2419C31.0716 42.0696 33.0666 39.2486 34.9203 36.2983C37.7599 31.7793 42.5234 23.359 42.5234 17.7409C42.5234 7.9586 34.5648 0 24.7821 0ZM32.9694 34.1072C29.3306 40.0136 25.9899 44.0048 24.7654 45.0236C23.5345 44.0361 20.2481 40.1399 16.5584 34.1258C12.2985 27.1816 9.85529 21.2096 9.85529 17.7411C9.8551 9.51029 16.5513 2.81408 24.7821 2.81408C33.0129 2.81408 39.7091 9.51029 39.7091 17.7411C39.7093 21.1897 37.2526 27.1548 32.9694 34.1072Z" fill="white"/>
</g>
</g>
<defs>
<clipPath id="clip0_20_199">
<rect width="48" height="48" fill="white" transform="translate(0.782104)"/>
</clipPath>
</defs>
</svg>
