<svg width="55" height="49" viewBox="0 0 55 49" fill="none" xmlns="http://www.w3.org/2000/svg">
<g id="back-arrow-icon 1" clip-path="url(#clip0_1_308)">
<path id="Vector" d="M28.6261 11.5073C29.7315 10.2942 30.3237 8.69997 30.2784 7.05942C30.233 5.41887 29.5535 3.85976 28.3828 2.70967C27.212 1.55958 25.641 0.908037 23.9999 0.891938C22.3588 0.875838 20.7753 1.49643 19.5822 2.62333L2.04527 20.4534C0.880913 21.6387 0.228516 23.2339 0.228516 24.8954C0.228516 26.5569 0.880913 28.1521 2.04527 29.3374L19.2313 46.8166C20.4186 47.9717 22.011 48.6161 23.6675 48.612C25.324 48.6078 26.9131 47.9553 28.0945 46.7941C29.276 45.633 29.9559 44.0555 29.9889 42.3993C30.0218 40.7431 29.4051 39.1398 28.2707 37.9326L21.5722 31.1097L48.5172 30.9809C49.3496 30.9742 50.1726 30.8036 50.9391 30.4789C51.7055 30.1541 52.4006 29.6816 52.9844 29.0882C53.5683 28.4949 54.0295 27.7923 54.3419 27.0207C54.6542 26.2491 54.8116 25.4235 54.8048 24.5911C54.7981 23.7587 54.6275 22.9358 54.3028 22.1693C53.978 21.4028 53.5055 20.7078 52.9122 20.124C52.3188 19.5401 51.6163 19.0788 50.8447 18.7665C50.0731 18.4541 49.2475 18.2968 48.4151 18.3035L21.8298 18.4279L28.6261 11.5073Z" fill="white"/>
</g>
<defs>
<clipPath id="clip0_1_308">
<rect width="54.583" height="48" fill="white" transform="translate(0.22406 0.722168)"/>
</clipPath>
</defs>
</svg>
