<svg width="41" height="41" viewBox="0 0 41 41" fill="none" xmlns="http://www.w3.org/2000/svg">
<g id="plus-svgrepo-com 1" clip-path="url(#clip0_20_206)">
<g id="Group">
<path id="Vector" d="M37.1393 16.7836H24.4218V4.0767C24.4218 2.06534 22.7989 0.43457 20.7876 0.43457C18.7762 0.43457 17.1542 2.06534 17.1542 4.07758V16.7924H4.43057C2.4192 16.7924 0.784033 18.4232 0.784914 20.4355C0.784033 21.4407 1.19018 22.3622 1.8483 23.0204C2.5073 23.6802 3.41652 24.097 4.42088 24.097H17.1542V36.7942C17.1542 37.8003 17.5533 38.7113 18.2123 39.3685C18.8713 40.0275 19.7779 40.4355 20.784 40.4355C22.7945 40.4355 24.4218 38.8047 24.4218 36.7942V24.0961H37.1393C39.1506 24.0961 40.7814 22.4512 40.7805 20.4399C40.7796 18.4294 39.1489 16.7836 37.1393 16.7836Z" fill="white"/>
</g>
</g>
<defs>
<clipPath id="clip0_20_206">
<rect width="40" height="40" fill="white" transform="translate(0.782227 0.43457)"/>
</clipPath>
</defs>
</svg>
