<svg width="97" height="97" viewBox="0 0 97 97" fill="none" xmlns="http://www.w3.org/2000/svg">
<g id="location-point-svgrepo-com 1" clip-path="url(#clip0_1_41)">
<g id="Group">
<path id="Vector" d="M48.6024 14.9929C37.0646 14.9929 27.6776 24.3796 27.6776 35.9173C27.6776 47.4551 37.0646 56.8417 48.6024 56.8417C60.1401 56.8417 69.5271 47.4551 69.5271 35.9173C69.5271 24.3796 60.1401 14.9929 48.6024 14.9929ZM48.6024 51.2132C40.168 51.2132 33.3058 44.3513 33.3058 35.9169C33.3058 27.4826 40.168 20.6211 48.6024 20.6211C57.0367 20.6211 63.899 27.4829 63.899 35.9173C63.899 44.3517 57.0371 51.2132 48.6024 51.2132Z" fill="#268462"/>
<path id="Vector_2" d="M48.6023 0.434692C29.0373 0.434692 13.1201 16.3519 13.1201 35.9169C13.1201 47.2002 22.5829 64.0108 28.2235 73.0268C31.9347 78.9585 35.9228 84.6039 39.4528 88.9226C45.1189 95.8542 47.1469 96.4343 48.6027 96.4343C50.0803 96.4343 51.995 95.8539 57.6434 88.9185C61.1813 84.5739 65.1713 78.9318 68.8787 73.0313C74.5579 63.9932 84.0849 47.1526 84.0849 35.9165C84.0849 16.3519 68.1677 0.434692 48.6023 0.434692ZM64.9769 68.6492C57.6993 80.462 51.0179 88.4442 48.5689 90.482C46.1072 88.5069 39.5342 80.7145 32.155 68.6863C23.635 54.7979 18.7487 42.8538 18.7487 35.9169C18.7483 19.4553 32.1407 6.06286 48.6023 6.06286C65.064 6.06286 78.4564 19.4553 78.4564 35.9169C78.4567 42.814 73.5434 54.7442 64.9769 68.6492Z" fill="#268462"/>
</g>
</g>
<defs>
<clipPath id="clip0_1_41">
<rect width="96" height="96" fill="white" transform="translate(0.602295 0.434692)"/>
</clipPath>
</defs>
</svg>
