<svg width="97" height="97" viewBox="0 0 97 97" fill="none" xmlns="http://www.w3.org/2000/svg">
<g id="material-symbols:barcode-scanner-rounded">
<path id="Vector" d="M24.6023 80.3591C24.6023 81.4925 24.2183 82.4431 23.4503 83.2111C22.6823 83.9791 21.733 84.3618 20.6023 84.3591H8.60229C7.46896 84.3591 6.51963 83.9751 5.75429 83.2071C4.98896 82.4391 4.60496 81.4898 4.60229 80.3591V68.3591C4.60229 67.2258 4.98629 66.2765 5.75429 65.5111C6.52229 64.7458 7.47163 64.3618 8.60229 64.3591C9.73563 64.3591 10.6863 64.7431 11.4543 65.5111C12.2223 66.2791 12.605 67.2285 12.6023 68.3591V76.3591H20.6023C21.7356 76.3591 22.6863 76.7431 23.4543 77.5111C24.2223 78.2791 24.605 79.2285 24.6023 80.3591ZM88.6023 64.3591C89.7356 64.3591 90.6863 64.7431 91.4543 65.5111C92.2223 66.2791 92.605 67.2285 92.6023 68.3591V80.3591C92.6023 81.4925 92.2183 82.4431 91.4503 83.2111C90.6823 83.9791 89.733 84.3618 88.6023 84.3591H76.6023C75.469 84.3591 74.5196 83.9751 73.7543 83.2071C72.989 82.4391 72.605 81.4898 72.6023 80.3591C72.6023 79.2258 72.9863 78.2765 73.7543 77.5111C74.5223 76.7458 75.4716 76.3618 76.6023 76.3591H84.6023V68.3591C84.6023 67.2258 84.9863 66.2765 85.7543 65.5111C86.5223 64.7458 87.4716 64.3618 88.6023 64.3591ZM18.6023 72.3591C18.069 72.3591 17.6023 72.1591 17.2023 71.7591C16.8023 71.3591 16.6023 70.8925 16.6023 70.3591V26.3591C16.6023 25.8258 16.8023 25.3591 17.2023 24.9591C17.6023 24.5591 18.069 24.3591 18.6023 24.3591H22.6023C23.1356 24.3591 23.6023 24.5591 24.0023 24.9591C24.4023 25.3591 24.6023 25.8258 24.6023 26.3591V70.3591C24.6023 70.8925 24.4023 71.3591 24.0023 71.7591C23.6023 72.1591 23.1356 72.3591 22.6023 72.3591H18.6023ZM30.6023 72.3591C30.069 72.3591 29.6023 72.1591 29.2023 71.7591C28.8023 71.3591 28.6023 70.8925 28.6023 70.3591V26.3591C28.6023 25.8258 28.8023 25.3591 29.2023 24.9591C29.6023 24.5591 30.069 24.3591 30.6023 24.3591C31.1356 24.3591 31.6023 24.5591 32.0023 24.9591C32.4023 25.3591 32.6023 25.8258 32.6023 26.3591V70.3591C32.6023 70.8925 32.4023 71.3591 32.0023 71.7591C31.6023 72.1591 31.1356 72.3591 30.6023 72.3591ZM42.6023 72.3591C42.069 72.3591 41.6023 72.1591 41.2023 71.7591C40.8023 71.3591 40.6023 70.8925 40.6023 70.3591V26.3591C40.6023 25.8258 40.8023 25.3591 41.2023 24.9591C41.6023 24.5591 42.069 24.3591 42.6023 24.3591H46.6023C47.1356 24.3591 47.6023 24.5591 48.0023 24.9591C48.4023 25.3591 48.6023 25.8258 48.6023 26.3591V70.3591C48.6023 70.8925 48.4023 71.3591 48.0023 71.7591C47.6023 72.1591 47.1356 72.3591 46.6023 72.3591H42.6023ZM54.6023 72.3591C54.069 72.3591 53.6023 72.1591 53.2023 71.7591C52.8023 71.3591 52.6023 70.8925 52.6023 70.3591V26.3591C52.6023 25.8258 52.8023 25.3591 53.2023 24.9591C53.6023 24.5591 54.069 24.3591 54.6023 24.3591H62.6023C63.1356 24.3591 63.6023 24.5591 64.0023 24.9591C64.4023 25.3591 64.6023 25.8258 64.6023 26.3591V70.3591C64.6023 70.8925 64.4023 71.3591 64.0023 71.7591C63.6023 72.1591 63.1356 72.3591 62.6023 72.3591H54.6023ZM70.6023 72.3591C70.069 72.3591 69.6023 72.1591 69.2023 71.7591C68.8023 71.3591 68.6023 70.8925 68.6023 70.3591V26.3591C68.6023 25.8258 68.8023 25.3591 69.2023 24.9591C69.6023 24.5591 70.069 24.3591 70.6023 24.3591C71.1356 24.3591 71.6023 24.5591 72.0023 24.9591C72.4023 25.3591 72.6023 25.8258 72.6023 26.3591V70.3591C72.6023 70.8925 72.4023 71.3591 72.0023 71.7591C71.6023 72.1591 71.1356 72.3591 70.6023 72.3591ZM78.6023 72.3591C78.069 72.3591 77.6023 72.1591 77.2023 71.7591C76.8023 71.3591 76.6023 70.8925 76.6023 70.3591V26.3591C76.6023 25.8258 76.8023 25.3591 77.2023 24.9591C77.6023 24.5591 78.069 24.3591 78.6023 24.3591C79.1356 24.3591 79.6023 24.5591 80.0023 24.9591C80.4023 25.3591 80.6023 25.8258 80.6023 26.3591V70.3591C80.6023 70.8925 80.4023 71.3591 80.0023 71.7591C79.6023 72.1591 79.1356 72.3591 78.6023 72.3591ZM24.6023 16.3591C24.6023 17.4925 24.2183 18.4431 23.4503 19.2111C22.6823 19.9791 21.733 20.3618 20.6023 20.3591H12.6023V28.3591C12.6023 29.4925 12.2183 30.4431 11.4503 31.2111C10.6823 31.9791 9.73296 32.3618 8.60229 32.3591C7.46896 32.3591 6.51963 31.9751 5.75429 31.2071C4.98896 30.4391 4.60496 29.4898 4.60229 28.3591V16.3591C4.60229 15.2258 4.98629 14.2765 5.75429 13.5111C6.52229 12.7458 7.47163 12.3618 8.60229 12.3591H20.6023C21.7356 12.3591 22.6863 12.7431 23.4543 13.5111C24.2223 14.2791 24.605 15.2285 24.6023 16.3591ZM72.6023 16.3591C72.6023 15.2258 72.9863 14.2765 73.7543 13.5111C74.5223 12.7458 75.4716 12.3618 76.6023 12.3591H88.6023C89.7356 12.3591 90.6863 12.7431 91.4543 13.5111C92.2223 14.2791 92.605 15.2285 92.6023 16.3591V28.3591C92.6023 29.4925 92.2183 30.4431 91.4503 31.2111C90.6823 31.9791 89.733 32.3618 88.6023 32.3591C87.469 32.3591 86.5196 31.9751 85.7543 31.2071C84.989 30.4391 84.605 29.4898 84.6023 28.3591V20.3591H76.6023C75.469 20.3591 74.5196 19.9751 73.7543 19.2071C72.989 18.4391 72.605 17.4898 72.6023 16.3591Z" fill="#595D62"/>
</g>
</svg>
