<svg width="97" height="88" viewBox="0 0 97 88" fill="none" xmlns="http://www.w3.org/2000/svg">
<g id="mdi:faq">
<path id="Vector" d="M72.6023 55H24.6023L8.60229 69.6667V11C8.60229 10.0276 9.02372 9.09495 9.77387 8.40732C10.524 7.71968 11.5414 7.33337 12.6023 7.33337H72.6023C73.6632 7.33337 74.6806 7.71968 75.4307 8.40732C76.1809 9.09495 76.6023 10.0276 76.6023 11V51.3334C76.6023 52.3058 76.1809 53.2385 75.4307 53.9261C74.6806 54.6137 73.6632 55 72.6023 55ZM92.6023 33V84.3334L76.6023 69.6667H32.6023C31.5414 69.6667 30.524 69.2804 29.7739 68.5928C29.0237 67.9051 28.6023 66.9725 28.6023 66V62.3334H84.6023V29.3334H88.6023C89.6632 29.3334 90.6806 29.7197 91.4307 30.4073C92.1809 31.0949 92.6023 32.0276 92.6023 33ZM33.3623 14.6667C29.8823 14.6667 27.0823 15.4 24.9223 16.83C22.8423 18.3334 21.8023 20.4234 21.8423 23.32L21.8823 23.43H29.6023C29.6423 22.33 30.0023 21.4867 30.7223 20.9C31.463 20.337 32.4003 20.0376 33.3623 20.0567C34.6023 20.0567 35.6423 20.4234 36.3623 21.0834C37.0823 21.78 37.4023 22.7334 37.4023 23.8334C37.4023 25.0067 37.1223 25.9967 36.4823 26.84C35.9223 27.6834 35.0823 28.4167 34.0423 29.0034C32.0023 30.25 30.6023 31.35 29.8423 32.34C29.0423 33.2934 28.6023 34.8334 28.6023 36.6667H36.6023C36.6023 35.53 36.7623 34.6134 37.1223 33.9534C37.4823 33.2934 38.1623 32.6334 39.1623 32.0467C40.9623 31.1667 42.4423 30.1034 43.6023 28.6367C44.7623 27.17 45.3623 25.6667 45.3623 23.8334C45.3623 21.0467 44.2823 18.81 42.1223 17.16C40.0023 15.51 37.0823 14.6667 33.3623 14.6667ZM28.6023 40.3334V47.6667H36.6023V40.3334H28.6023ZM52.6023 47.6667H60.6023V40.3334H52.6023V47.6667ZM52.6023 14.6667V36.6667H60.6023V14.6667H52.6023Z" fill="#595D62"/>
</g>
</svg>
