<svg width="97" height="97" viewBox="0 0 97 97" fill="none" xmlns="http://www.w3.org/2000/svg">
<g id="shopping-cart-outline-svgrepo-com 1" clip-path="url(#clip0_1_26)">
<g id="Group">
<g id="Group_2">
<path id="Vector" d="M72.0025 62.0095L83.7502 16.0108H96.6023V8.7804H78.1345L75.365 19.6238L0.602295 19.5703L8.55069 62.0092H72.0025V62.0095ZM73.519 26.8529L66.3867 54.7791H14.5525L9.3136 26.807L73.519 26.8529Z" fill="#595D62"/>
<path id="Vector_2" d="M62.1048 88.3591C68.4803 88.3591 73.6673 83.1721 73.6673 76.7965C73.6673 70.4209 68.4803 65.2341 62.1048 65.2341H18.5417C12.1662 65.2341 6.97913 70.4209 6.97913 76.7965C6.97913 83.1721 12.1661 88.3591 18.5417 88.3591C24.9174 88.3591 30.1043 83.1721 30.1043 76.7965C30.1043 75.2654 29.8043 73.8032 29.2614 72.4645H51.3851C50.8421 73.8032 50.5421 75.2654 50.5421 76.7965C50.5422 83.1721 55.7292 88.3591 62.1048 88.3591ZM22.8739 76.7965C22.8739 79.1854 20.9305 81.1288 18.5417 81.1288C16.153 81.1288 14.2095 79.1854 14.2095 76.7965C14.2095 74.4079 16.1529 72.4645 18.5417 72.4645C20.9305 72.4645 22.8739 74.4079 22.8739 76.7965ZM66.437 76.7965C66.437 79.1854 64.4936 81.1288 62.1049 81.1288C59.7161 81.1288 57.7727 79.1854 57.7727 76.7965C57.7727 74.4079 59.7161 72.4645 62.1049 72.4645C64.4936 72.4645 66.437 74.4079 66.437 76.7965Z" fill="#595D62"/>
</g>
</g>
</g>
<defs>
<clipPath id="clip0_1_26">
<rect width="96" height="96" fill="white" transform="translate(0.602295 0.569702)"/>
</clipPath>
</defs>
</svg>
